<?xml version="1.0" encoding="UTF-8"?><svg id="a" xmlns="http://www.w3.org/2000/svg" viewBox="0 0 125.67 126.73"><defs><style>.b{fill:#273680;}.c{fill:#bf4764;}.d{fill:#1d5ea1;}.e{fill:#c9c22f;}.f{fill:#007cad;}.g{fill:#ef6541;}.h{fill:#f9c720;}.i{fill:#032749;}.j{fill:#a44c78;}.k{fill:#214890;}.l{fill:#68a661;}.m{fill:#149da9;}.n{fill:none;}.o{fill:#f8a031;}.p{fill:#df4b46;}.q{fill:#4d468f;}.r{fill:#e04e52;}.s{fill:#f37f3b;}.t{fill:#734d8e;}</style></defs><g><path class="n" d="M64.67,126.73c5.37,.06,12.17-1.16,18.8-3.39,8.28-2.78,15.48-7.37,21.85-13.28,1.73-1.6,3.33-3.34,4.91-5.1,3.58-3.99,6.49-8.44,8.88-13.22,3.04-6.1,4.9-12.54,5.86-19.3,.77-5.46,.95-10.9,.31-16.34-.77-6.51-2.44-12.8-5.1-18.85-2.83-6.44-6.69-12.14-11.43-17.27-5.02-5.44-10.95-9.74-17.52-13.15-7.34-3.8-15.17-5.92-23.37-6.6-7.21-.6-14.34-.01-21.33,1.91-12.11,3.34-22.27,9.85-30.67,19.14-3.22,3.56-5.9,7.52-8.16,11.75C3.15,41.53,.71,50.63,.1,60.26c-.37,5.87,.27,11.64,1.52,17.35,1.84,8.35,5.44,15.92,10.36,22.86,6.08,8.56,13.86,15.21,23.28,19.85,8.73,4.31,18.01,6.41,29.4,6.41Z"/><path class="i" d="M64.67,126.73c-11.39,0-20.67-2.1-29.4-6.41-9.42-4.65-17.2-11.29-23.28-19.85-4.93-6.94-8.53-14.52-10.36-22.86C.37,71.89-.27,66.12,.1,60.26c.61-9.62,3.04-18.73,7.59-27.24,2.26-4.23,4.95-8.18,8.16-11.75C24.26,11.98,34.41,5.47,46.53,2.14,53.51,.21,60.65-.37,67.85,.23c8.2,.68,16.03,2.8,23.37,6.6,6.57,3.41,12.5,7.71,17.52,13.15,4.73,5.12,8.6,10.83,11.43,17.27,2.66,6.05,4.34,12.33,5.1,18.85,.64,5.44,.46,10.89-.31,16.34-.96,6.76-2.82,13.2-5.86,19.3-2.39,4.79-5.3,9.24-8.88,13.22-1.58,1.75-3.18,3.49-4.91,5.1-6.37,5.91-13.56,10.51-21.85,13.28-6.63,2.22-13.43,3.45-18.8,3.39ZM36.39,11.86c-3.59,1.83-6.89,4.08-9.97,6.67-2.52,2.13-4.96,4.32-7.09,6.84-3.51,4.16-6.4,8.72-8.62,13.7-1.22,2.73-2.35,5.5-3.01,8.44-.45,1.02-.57,2.13-.81,3.21-.65,2.98-1.19,5.96-1.23,9.02-.5,2.91-.27,5.83-.05,8.74,.1,1.27,.16,2.55,.51,3.79,.33,2.52,.86,5,1.64,7.42,.46,1.96,1.15,3.84,1.95,5.68,.8,2.11,1.77,4.15,2.91,6.11,1.07,2.04,2.3,3.98,3.67,5.84,1.39,2.03,3,3.88,4.68,5.67,.38,.37,.78,.71,1.13,1.11,1.48,1.71,3.13,3.24,4.96,4.57,2.22,1.88,4.6,3.52,7.14,4.94,2.47,1.46,5,2.8,7.71,3.79,2.44,1.11,5,1.82,7.59,2.46,.46,.08,.92,.16,1.38,.24,3.04,.69,6.1,1.18,9.23,1.23,2.92,.3,5.84,.19,8.75-.16,7.63-.85,14.84-3.04,21.53-6.86,4-2.21,7.73-4.8,11.08-7.91,6.13-5.69,10.92-12.35,14.21-20.06,1.98-4.65,3.33-9.48,3.97-14.5,.37-2.61,.65-5.23,.59-7.87,.08-2.99-.02-5.97-.54-8.93-.3-2.82-.88-5.59-1.77-8.29-.62-2.4-1.47-4.72-2.57-6.95-1.07-2.62-2.42-5.09-3.98-7.45-1.31-2.22-2.86-4.25-4.52-6.21-1.57-1.99-3.32-3.81-5.17-5.54-.09-.08-.25-.1-.38-.14-1.59-1.85-3.54-3.27-5.51-4.67-1.98-1.33-4.01-2.58-6.13-3.67-2.01-1.13-4.1-2.08-6.26-2.86-2.21-.94-4.48-1.72-6.84-2.2-2.62-.75-5.3-1.14-8.01-1.41-5.77-.67-11.49-.37-17.16,.87-.1,0-.2-.02-.29,0-5.15,1.12-10.02,2.99-14.72,5.36Z"/><path class="h" d="M101.31,20.44c.13,.04,.29,.06,.38,.14,1.85,1.73,3.6,3.55,5.17,5.54-.17,.32-.36,.63-.49,.97-1.34,3.39-3.55,6.1-6.49,8.2-2.7,1.93-5.83,2.85-9.01,3.63-2.97,.73-5.73,1.87-8.04,3.98-2.98,2.73-4.2,6.34-5.06,10.09-1.05,4.58-3.29,8.33-7.12,11.08-4.3,3.08-7.04,7.24-8.3,12.31-1.29,5.19-4.39,8.62-9.28,10.64-2.16,.89-4.33,1.77-6.28,3.12-3.48,2.43-5.76,5.78-7.68,9.49-1.74,3.37-4.43,5.8-7.88,7.43-1.36,.64-2.85,.91-4.18,1.59-1.83-1.33-3.48-2.86-4.96-4.57-.34-.4-.75-.74-1.13-1.11,.62,.09,1.19-.15,1.78-.3,5.27-1.37,9.27-4.32,11.64-9.34,2.52-5.34,6.5-9.09,12.11-11.1,5.41-1.94,9.18-5.46,10.64-11.22,.5-1.98,1.2-3.91,2.15-5.74,1.64-3.14,4.23-5.37,6.98-7.45,2.29-1.73,4-3.9,5.14-6.53,1.01-2.32,1.44-4.81,2.25-7.19,1.09-3.22,2.83-5.97,5.56-8.05,2.38-1.81,5.15-2.68,7.99-3.41,5-1.3,9.49-3.38,12.23-8.1,.76-1.31,1.55-2.61,1.88-4.12Z"/><path class="e" d="M101.31,20.44c-.33,1.51-1.12,2.81-1.88,4.12-2.73,4.71-7.23,6.8-12.23,8.1-2.84,.74-5.61,1.6-7.99,3.41-2.73,2.08-4.48,4.83-5.56,8.05-.8,2.38-1.24,4.87-2.25,7.19-1.14,2.63-2.85,4.8-5.14,6.53-2.75,2.08-5.35,4.31-6.98,7.45-.95,1.83-1.65,3.76-2.15,5.74-1.45,5.75-5.22,9.28-10.64,11.22-5.61,2.01-9.59,5.75-12.11,11.1-2.36,5.01-6.36,7.96-11.64,9.34-.58,.15-1.15,.39-1.78,.3-1.69-1.79-3.29-3.64-4.68-5.67,1.36-.38,2.75-.66,4.07-1.15,4.22-1.56,7.18-4.52,9.09-8.55,2.49-5.27,6.48-8.89,11.94-10.87,5.42-1.97,9.18-5.45,10.54-11.24,.44-1.86,.98-3.72,1.83-5.46,1.45-2.97,3.7-5.23,6.35-7.14,3.29-2.37,5.68-5.39,6.93-9.29,.68-2.11,1.11-4.29,1.98-6.34,1.4-3.28,3.52-5.91,6.63-7.73,2.29-1.34,4.86-1.82,7.36-2.54,4.53-1.31,8.19-3.78,10.84-7.72,.75-1.12,1.23-2.38,1.95-3.51,1.97,1.4,3.93,2.82,5.51,4.67Z"/><path class="o" d="M27.06,108.66c1.33-.69,2.82-.95,4.18-1.59,3.45-1.63,6.14-4.06,7.88-7.43,1.91-3.71,4.19-7.06,7.68-9.49,1.94-1.35,4.12-2.23,6.28-3.12,4.88-2.02,7.99-5.45,9.28-10.64,1.26-5.07,4.01-9.23,8.3-12.31,3.83-2.75,6.07-6.5,7.12-11.08,.86-3.75,2.09-7.36,5.06-10.09,2.31-2.11,5.07-3.25,8.04-3.98,3.18-.78,6.31-1.69,9.01-3.63,2.94-2.1,5.15-4.81,6.49-8.2,.13-.34,.33-.65,.49-.97,1.67,1.95,3.22,3.99,4.52,6.21-.15,.27-.32,.54-.46,.82-1.49,3.2-3.62,5.84-6.57,7.84-2.93,1.98-6.26,2.84-9.6,3.74-5.86,1.57-9.61,5.3-11.22,11.18-.65,2.35-1.19,4.74-2.18,6.98-1.47,3.33-4.2,5.56-6.95,7.75-2.55,2.03-4.62,4.41-5.7,7.53-.77,2.23-1.37,4.54-2.27,6.72-1.64,3.98-4.76,6.47-8.73,7.89-5.58,2-9.83,5.48-12.58,10.77-1.37,2.63-3.2,4.87-5.49,6.76-1.66,1.36-3.61,2.23-5.43,3.31-2.54-1.42-4.92-3.07-7.14-4.94Z"/><path class="l" d="M95.8,15.77c-.72,1.13-1.19,2.39-1.95,3.51-2.66,3.94-6.31,6.42-10.84,7.72-2.49,.72-5.07,1.2-7.36,2.54-3.11,1.82-5.23,4.46-6.63,7.73-.87,2.05-1.31,4.23-1.98,6.34-1.25,3.9-3.64,6.92-6.93,9.29-2.65,1.91-4.9,4.17-6.35,7.14-.85,1.74-1.39,3.59-1.83,5.46-1.37,5.79-5.12,9.26-10.54,11.24-5.46,1.99-9.45,5.61-11.94,10.87-1.91,4.03-4.87,6.99-9.09,8.55-1.32,.49-2.71,.77-4.07,1.15-1.36-1.86-2.59-3.8-3.67-5.84,1.95-.35,3.75-1.09,5.44-2.11,3.26-1.95,5.17-5.04,6.84-8.28,2.48-4.83,6.35-7.99,11.39-9.84,2.23-.82,4.3-1.94,6.08-3.56,2.45-2.22,3.7-5.1,4.47-8.21,1.34-5.38,4.23-9.58,8.9-12.64,2.68-1.76,4.64-4.22,5.74-7.28,.87-2.4,1.65-4.84,2.6-7.21,1.27-3.17,3.17-5.94,6.06-7.84,2.4-1.58,5.22-2.21,7.94-3.04,4.44-1.35,8.17-3.67,10.53-7.84,.3-.52,.47-1.17,1.05-1.52,2.12,1.09,4.15,2.34,6.13,3.67Z"/><path class="s" d="M34.2,113.6c1.82-1.09,3.78-1.95,5.43-3.31,2.29-1.88,4.13-4.13,5.49-6.76,2.74-5.28,7-8.77,12.58-10.77,3.97-1.42,7.09-3.91,8.73-7.89,.9-2.18,1.5-4.48,2.27-6.72,1.08-3.13,3.14-5.5,5.7-7.53,2.75-2.19,5.48-4.41,6.95-7.75,.99-2.24,1.53-4.63,2.18-6.98,1.61-5.87,5.36-9.6,11.22-11.18,3.34-.9,6.67-1.75,9.6-3.74,2.96-2,5.08-4.64,6.57-7.84,.13-.28,.3-.55,.46-.82,1.56,2.36,2.91,4.83,3.98,7.45-.51-.19-.62,.23-.78,.54-1.17,2.27-2.71,4.21-4.75,5.76-2.8,2.13-6.09,3.07-9.43,3.9-4.82,1.2-8.44,3.92-10.62,8.46-1.28,2.66-1.7,5.58-2.58,8.36-1.06,3.37-3.08,6.03-5.85,8.17-1.74,1.34-3.43,2.72-4.83,4.44-1.94,2.38-2.98,5.18-3.9,8.04-.57,1.78-1.32,3.47-2.39,5.01-2.11,3.01-5.01,4.94-8.43,6.17-4.84,1.75-8.49,4.9-10.96,9.42-1.86,3.4-4.15,6.41-7.54,8.43-.47,.28-.94,.59-1.4,.88-2.71-.98-5.24-2.33-7.71-3.79Z"/><path class="m" d="M89.67,12.09c-.58,.34-.76,.99-1.05,1.52-2.36,4.17-6.09,6.49-10.53,7.84-2.72,.83-5.53,1.46-7.94,3.04-2.89,1.9-4.79,4.67-6.06,7.84-.95,2.37-1.74,4.81-2.6,7.21-1.11,3.06-3.07,5.52-5.74,7.28-4.67,3.06-7.57,7.26-8.9,12.64-.77,3.11-2.02,5.98-4.47,8.21-1.79,1.62-3.85,2.74-6.08,3.56-5.04,1.86-8.91,5.01-11.39,9.84-1.67,3.25-3.58,6.33-6.84,8.28-1.69,1.02-3.49,1.76-5.44,2.11-1.14-1.95-2.1-3.99-2.91-6.11,.28,.16,.55,.1,.83,0,1.84-.66,3.46-1.67,4.89-3,2.32-2.17,3.45-5.09,4.99-7.75,.69-1.19,1.5-2.28,2.42-3.29,2.44-2.67,5.49-4.38,8.84-5.63,3.95-1.47,6.95-3.98,8.62-7.96,1.12-2.67,1.58-5.55,2.76-8.2,1.09-2.44,2.76-4.38,4.77-6.03,1.89-1.56,3.99-2.84,5.59-4.77,1.73-2.1,3.02-4.39,3.86-6.96,1.31-4.02,2.82-7.92,6.15-10.81,1.89-1.64,4.09-2.69,6.47-3.24,2.88-.67,5.77-1.24,8.27-2.95,2.14-1.47,3.94-3.24,5.22-5.52,2.17,.78,4.25,1.74,6.26,2.86Z"/><path class="g" d="M41.91,117.39c.47-.3,.93-.6,1.4-.88,3.4-2.02,5.68-5.03,7.54-8.43,2.46-4.51,6.12-7.67,10.96-9.42,3.42-1.24,6.32-3.16,8.43-6.17,1.08-1.54,1.82-3.23,2.39-5.01,.92-2.86,1.95-5.66,3.9-8.04,1.4-1.72,3.09-3.1,4.83-4.44,2.76-2.13,4.78-4.8,5.85-8.17,.88-2.78,1.3-5.7,2.58-8.36,2.18-4.54,5.8-7.26,10.62-8.46,3.34-.83,6.63-1.77,9.43-3.9,2.04-1.55,3.58-3.5,4.75-5.76,.16-.31,.26-.73,.78-.54,1.09,2.23,1.94,4.55,2.57,6.95-1.54,2.84-3.67,5.11-6.45,6.78-2.29,1.37-4.89,1.82-7.4,2.55-3.76,1.09-6.65,3.28-8.61,6.68-1.51,2.63-2.14,5.56-2.84,8.44-.99,4.08-3.3,7.18-6.53,9.68-2.17,1.68-4.22,3.45-5.68,5.81-1.45,2.34-2.06,5.01-2.99,7.56-1.38,3.79-3.79,6.7-7.48,8.48-2.76,1.33-5.71,2.31-8.15,4.26-2.01,1.61-3.84,3.37-5.11,5.66-1.04,1.87-2.07,3.76-3.68,5.24-.7,.64-1.38,1.3-2.07,1.96-.48,.14-.96-.34-1.45-.02-2.59-.64-5.16-1.34-7.59-2.46Z"/><path class="f" d="M83.41,9.23c-1.28,2.28-3.08,4.05-5.22,5.52-2.5,1.72-5.38,2.28-8.27,2.95-2.39,.55-4.58,1.6-6.47,3.24-3.33,2.89-4.84,6.79-6.15,10.81-.84,2.57-2.13,4.87-3.86,6.96-1.6,1.93-3.69,3.22-5.59,4.77-2,1.65-3.68,3.59-4.77,6.03-1.18,2.65-1.64,5.53-2.76,8.2-1.67,3.98-4.67,6.49-8.62,7.96-3.36,1.25-6.41,2.96-8.84,5.63-.92,1.01-1.74,2.1-2.42,3.29-1.54,2.66-2.67,5.59-4.99,7.75-1.43,1.33-3.05,2.34-4.89,3-.29,.1-.56,.16-.83,0-.8-1.84-1.49-3.72-1.95-5.68,1.24-.48,2.24-1.32,3.13-2.27,1.55-1.66,2.56-3.68,3.49-5.73,1.1-2.42,2.47-4.66,4.41-6.48,2.27-2.13,4.96-3.59,7.83-4.75,4.32-1.73,7.43-4.59,8.78-9.18,.86-2.92,1.63-5.87,3.32-8.47,1.85-2.84,4.48-4.86,7.17-6.79,2.46-1.77,4.2-4.07,5.4-6.81,1.18-2.7,1.99-5.55,3.53-8.1,2.5-4.13,5.93-7,10.73-8.09,3.04-.69,6.08-1.42,8.61-3.44,.92-.73,1.95-1.35,2.4-2.53,2.36,.47,4.63,1.26,6.84,2.2Z"/><path class="d" d="M76.57,7.03c-.45,1.18-1.48,1.8-2.4,2.53-2.52,2.01-5.56,2.74-8.61,3.44-4.8,1.09-8.23,3.96-10.73,8.09-1.54,2.55-2.35,5.4-3.53,8.1-1.2,2.74-2.94,5.04-5.4,6.81-2.69,1.94-5.31,3.95-7.17,6.79-1.7,2.6-2.47,5.56-3.32,8.47-1.35,4.59-4.46,7.45-8.78,9.18-2.87,1.15-5.56,2.62-7.83,4.75-1.95,1.83-3.32,4.06-4.41,6.48-.93,2.05-1.94,4.07-3.49,5.73-.88,.95-1.88,1.79-3.13,2.27-.78-2.42-1.32-4.9-1.64-7.42,.31-.06,.4-.34,.54-.55,1.11-1.66,1.9-3.49,2.63-5.33,2.09-5.26,5.75-8.9,10.99-11.03,2.51-1.01,4.78-2.4,6.59-4.49,1.73-2,2.61-4.41,3.36-6.85,1.34-4.34,3.81-7.84,7.49-10.49,2.08-1.5,4.18-2.96,5.83-4.98,1.99-2.43,2.94-5.38,4.19-8.17,1.92-4.26,4.45-8.04,8.49-10.59,2.83-1.78,5.97-2.68,9.22-3.35,1.04-.21,2.14-.29,3.11-.82,2.71,.27,5.39,.65,8.01,1.41Z"/><path class="r" d="M50.94,119.86c.69-.65,1.37-1.31,2.07-1.96,1.6-1.48,2.63-3.38,3.68-5.24,1.28-2.29,3.1-4.05,5.11-5.66,2.44-1.95,5.38-2.93,8.15-4.26,3.69-1.78,6.09-4.69,7.48-8.48,.93-2.55,1.54-5.22,2.99-7.56,1.46-2.36,3.51-4.13,5.68-5.81,3.23-2.5,5.54-5.6,6.53-9.68,.7-2.88,1.33-5.82,2.84-8.44,1.96-3.41,4.85-5.59,8.61-6.68,2.51-.73,5.11-1.18,7.4-2.55,2.78-1.67,4.91-3.94,6.45-6.78,.89,2.7,1.47,5.46,1.77,8.29-.17,.47-.6,.75-.9,1.12-1.55,1.89-3.6,3.05-5.77,4.04-1.86,.86-3.92,1.16-5.77,2.05-3.17,1.53-5.57,3.8-7.16,6.98-1.49,2.98-1.9,6.28-3,9.37-.89,2.51-2.22,4.69-4.31,6.4-2.75,2.25-5.44,4.58-7.44,7.57-1.34,2.01-1.96,4.3-2.68,6.57-1.15,3.62-3.33,6.46-6.68,8.28-2,1.09-4.13,1.95-6.14,3.03-4.56,2.44-7.43,6.42-9.74,10.89-3.12-.05-6.19-.55-9.23-1.23,.03-.03,.05-.06,.08-.1,.05-.02,.11-.05,.16-.07-.06-.02-.12-.04-.18-.06,0,0,0,0,0,0Z"/><path class="j" d="M60.1,121.32c2.31-4.47,5.18-8.45,9.74-10.89,2.01-1.08,4.13-1.94,6.14-3.03,3.35-1.82,5.53-4.66,6.68-8.28,.72-2.26,1.34-4.56,2.68-6.57,2-2.99,4.69-5.32,7.44-7.57,2.09-1.71,3.42-3.88,4.31-6.4,1.1-3.09,1.51-6.39,3-9.37,1.59-3.18,3.98-5.46,7.16-6.98,1.85-.89,3.91-1.19,5.77-2.05,2.17-1,4.22-2.15,5.77-4.04,.3-.37,.73-.64,.9-1.12,.51,2.96,.61,5.94,.54,8.93-1.37,.75-2.63,1.67-4.11,2.24-2.35,.9-4.72,1.74-6.75,3.37-2.91,2.34-4.51,5.38-5.45,8.88-.6,2.25-1.01,4.55-1.9,6.71-1.27,3.06-3.64,5.21-6.11,7.22-3.07,2.5-5.5,5.46-6.92,9.18-.81,2.1-1.4,4.31-2.6,6.23-1.46,2.35-3.57,4.03-6.03,5.28-2.47,1.26-4.99,2.43-7.22,4.11-1.56,1.18-2.93,2.58-4.3,3.97-2.91,.35-5.82,.46-8.75,.16Z"/><path class="k" d="M68.56,5.62c-.97,.52-2.06,.6-3.11,.82-3.24,.67-6.39,1.57-9.22,3.35-4.05,2.55-6.58,6.33-8.49,10.59-1.26,2.8-2.21,5.74-4.19,8.17-1.65,2.02-3.75,3.48-5.83,4.98-3.68,2.65-6.15,6.14-7.49,10.49-.75,2.45-1.63,4.85-3.36,6.85-1.81,2.09-4.08,3.48-6.59,4.49-5.24,2.12-8.9,5.77-10.99,11.03-.73,1.84-1.52,3.67-2.63,5.33-.14,.21-.23,.49-.54,.55-.35-1.24-.41-2.52-.51-3.79-.22-2.91-.45-5.83,.05-8.74,.2-.3,.42-.59,.6-.9,1.63-2.79,3.78-5.09,6.57-6.71,1.77-1.03,3.65-1.88,5.34-3.07,2.93-2.06,4.78-4.9,5.81-8.27,1.56-5.1,4.48-9.08,9.1-11.8,2.74-1.61,5.05-3.71,6.75-6.43,1.16-1.85,1.81-3.93,2.68-5.91,1.47-3.36,3.55-6.24,6.48-8.49,.78-.6,1.79-.84,2.4-1.67,5.67-1.24,11.39-1.54,17.16-.87Z"/><path class="t" d="M68.85,121.16c1.37-1.39,2.73-2.79,4.3-3.97,2.23-1.69,4.75-2.86,7.22-4.11,2.46-1.25,4.56-2.93,6.03-5.28,1.2-1.92,1.79-4.13,2.6-6.23,1.43-3.72,3.85-6.68,6.92-9.18,2.48-2.02,4.85-4.16,6.11-7.22,.9-2.16,1.3-4.46,1.9-6.71,.93-3.5,2.54-6.54,5.45-8.88,2.03-1.63,4.39-2.47,6.75-3.37,1.48-.56,2.74-1.49,4.11-2.24,.06,2.64-.22,5.26-.59,7.87-.56,.29-1.11,.59-1.67,.87-2.98,1.51-5.4,3.61-7.01,6.59-1.52,2.82-1.98,5.99-2.93,8.99-1,3.14-2.71,5.78-5.34,7.72-3.42,2.54-6.33,5.46-7.99,9.45-.94,2.24-1.64,4.58-2.9,6.69-.44,.74-1.18,1.28-1.41,2.15-6.69,3.82-13.9,6.01-21.53,6.86Z"/><path class="b" d="M51.11,6.49c-5.15,1.12-10.02,2.99-14.72,5.36-3.59,1.83-6.89,4.08-9.97,6.67-2.52,2.13-4.96,4.32-7.09,6.84-3.51,4.16-6.4,8.72-8.62,13.7-1.22,2.73-2.35,5.5-3.01,8.44-.45,1.02-.57,2.13-.81,3.21-.65,2.98-1.19,5.96-1.23,9.02,.2-.3,.42-.59,.6-.9,1.63-2.79,3.78-5.09,6.57-6.71,1.77-1.03,3.65-1.88,5.34-3.07,2.93-2.06,4.78-4.9,5.81-8.27,1.56-5.1,4.48-9.08,9.1-11.8,2.74-1.61,5.05-3.71,6.75-6.43,1.16-1.85,1.81-3.93,2.68-5.91,1.47-3.36,3.55-6.24,6.48-8.49,.78-.6,1.79-.84,2.4-1.67-.1,0-.2-.02-.29,0Z"/><path class="q" d="M90.38,114.29c.23-.87,.97-1.42,1.41-2.15,1.26-2.1,1.96-4.45,2.9-6.69,1.67-3.99,4.58-6.91,7.99-9.45,2.63-1.95,4.34-4.58,5.34-7.72,.96-3,1.41-6.17,2.93-8.99,1.61-2.98,4.03-5.08,7.01-6.59,.56-.28,1.11-.58,1.67-.87-.64,5.02-1.99,9.85-3.97,14.5-3.29,7.71-8.07,14.36-14.21,20.06-3.35,3.11-7.08,5.7-11.08,7.91Z"/><path class="c" d="M49.5,119.84c.49-.33,.96,.15,1.45,.02,0,0,0,0,0,0,0,.04,0,.09,.02,.13-.03,.03-.05,.06-.08,.1-.46-.08-.92-.16-1.38-.24Z"/><path class="p" d="M50.96,119.99s-.01-.09-.02-.13c.06,.02,.12,.04,.18,.06-.05,.02-.11,.05-.16,.07Z"/></g><path class="i" d="M83.24,21.49c-3.02,0-5.64,.6-8.05,1.2,4.23,1.81,6.85,4.03,8.26,5.03,3.22,2.81,5.03,5.64,8.26,10.27,.6,1.01,1.6,2.41,2.21,4.62,.61,2.01,.61,3.62,.61,5.24,0,2.22-.2,4.03-.41,5.83-.2,1.42-.2,2.02-.39,2.42,0,.2,0,.4-.2,.8,0,1.01,0,1.42,.2,2.22,0,.8,.2,1.61,.2,3.02,.2,2.62,.2,4.43-.2,6.64v.81c-.41,1.81-.81,3.62-1.82,5.23,.2,.41,.4,.61,.61,1.01,1.01-1.41,1.81-2.81,2.61-4.42,2.42-4.43,3.83-8.26,4.84-11.07,1.81-5.24,2.81-9.06,3.42-11.88,1.41-6.04,1.61-8.85,1.01-12.08,0-1.01-.4-2.82-1.41-4.63-2.22-4.03-5.64-5.83-8.05-7.04-1.61-.8-5.84-3.02-11.68-3.22Zm-43.6,.89c-2.32-.05-5.15,.21-8.33,1.72-1.01,.41-4.03,1.82-6.44,5.03-1.61,2.01-2.81,5.03-3.42,8.45-.61,3.02-.81,6.65,.4,13.49,.8,4.83,1.61,8.05,3.22,14.69,.2,.81,1.41,4.43,4.03,12.48l.2,.4c.41,1.41,1.61,4.43,4.23,7.45,1.81,2.01,3.42,3.22,4.84,3.22h.39c2.62,0,4.43-2.01,6.04-3.62,0-.2,3.83-4.83,5.24-6.44-.2-.2-.6-.2-.8-.41-2.41-1.41-4.23-3.62-5.64-6.04-2.41-4.43-2.22-8.85-1.82-11.07l.2-3.41c-.8-5.44-.6-10.67,.41-15.9,.8-4.43,1.81-8.85,5.42-13.48,1.21-1.61,2.62-3.02,4.03-4.03-3.22-1.41-6.64-2.22-10.06-2.41-.65-.06-1.37-.1-2.14-.12Zm25.28,1.72c-1.01,0-2.01,0-3.02,.2-4.03,.8-7.85,3.02-10.87,6.84-3.02,3.83-3.82,7.45-4.62,11.68-.41,1.61-.41,3.02-.61,4.63,1.21-1.01,2.82-2.22,5.24-2.82,1.41-.4,5.03-1.6,8.05,.2,1.01,.61,2.41,1.82,3.82,5.24,3.02,8.45,0,17.11-.39,17.91-.2,.8-.61,1.41-.81,1.81-.4,1.01-.8,1.82-1.2,3.43-.2,1.41-.41,2.62-.41,4.03,.61,0,1.21,.2,1.81,.6,1.01,1.01,1.21,2.42,1.42,3.02,.4,3.22,.4,7.25,.4,11.27,0,3.22,0,6.24,.2,8.26,.41,4.63,1.82,7.85,3.83,9.46,1.41,1.21,3.22,1.2,4.22,1.41h.41c3.02,0,7.85-2.01,9.65-4.83,1.01-1.61,1.42-3.02,1.82-5.03,.2-1.21,.2-1.81,.4-3.02,0-.61,.2-1.61,.2-2.81,0-1.01,.2-2.22,.4-3.63,.2-3.42,.8-7.44,1.01-9.65,.2-2.62,1.41-4.84,2.41-6.24-1.41-.2-2.81-1.41-3.62-3.42-1.21-2.22-1.42-2.82-1.62-3.83-.2-.8-.6-1.81-2.01-4.83-3.02-6.84-3.41-8.85-3.41-10.46-.2-2.22-.41-5.23,2.01-7.24,3.62-3.22,8.25-3.02,10.66-2.22v-.41c-.4-1.6-1.2-2.81-1.81-3.62-3.02-4.63-4.63-7.04-7.45-9.46-1.2-1.01-4.22-3.43-8.65-5.03-2.01-.61-4.43-1.42-7.45-1.42Zm22.25,23.6c-1.46-.1-3.33,.15-4.94,1.56-.8,.8-.8,2.41-.6,3.82,0,1.01,.2,2.41,3.22,9.26,1.41,3.22,1.81,4.22,2.01,5.03,.2,.8,.4,1.2,1.61,3.41,.2,.41,.4,.81,.8,1.21,.4-.61,.61-1.61,.8-3.22l.2-.6c.4-1.81,.2-3.22,.2-5.64,0-1.21-.2-2.01-.2-2.62-.2-1.01-.2-1.81-.2-3.02-.4-.61-.4-.8-.2-1.21,0-.4,.2-1,.4-2.21,.2-1.61,.41-3.02,.41-4.63-.41-.2-.61-.4-1.01-.6,0,0-1.06-.46-2.52-.56Zm-31.47,.79c-1.28-.15-2.75,.27-3.66,.57-2.22,.61-3.62,2.01-4.62,2.81-.61,.61-1.21,1.21-1.82,2.01,0,1.41,.2,2.82,.4,4.23v.2l-.4,4.03c-.4,1.81-.61,5.23,1.41,8.65,1.01,2.01,2.42,3.62,4.23,4.63,1.21,.8,2.81,1.41,4.62,1.82,0-1.42,.2-3.03,.41-4.43,.4-2.01,.8-3.02,1.41-4.23,.2-.6,.4-1,.81-1.6,.2-.61,3.01-8.26,.39-15.3-.6-1.61-1.2-2.62-2.01-3.02-.35-.2-.75-.31-1.17-.36Zm29.53,1.15c.53-.03,1.03,.02,1.23,.22,.61,.4-.2,1.41-.41,1.61-.2,.2-.6,.61-1.2,.81-.8,.2-1.41-.41-1.61-.41-.2-.2-.8-.8-.6-1.41,.2-.4,.4-.4,1.2-.61,.3-.1,.86-.2,1.38-.22Zm-30.25,1.67c.68-.05,1.24,.21,1.7,.36,.61,.2,1.2,.41,1.2,.81,.2,.61-.39,1.01-.6,1.2-.61,.61-1.61,.61-1.61,.61-1.01,0-1.61-.61-2.01-1.21-.2-.2-.4-.61-.2-1.01,.2-.4,.6-.61,.8-.61,.25-.1,.49-.15,.72-.17Zm36.92,26.33c-1.01,1.41-2.41,3.22-2.62,5.64,0,.4,0,.61-.2,1.01,1.61,.4,3.03,.4,4.43,.2,3.22-.41,5.43-2.02,5.83-2.42,1.41-1.01,3.22-3.02,2.81-3.82-.2-.4-.8-.2-4.03,0-.8,0-3.22,.61-4.83,.2h-.4c-.4-.2-.8-.41-1.01-.81Zm-35.03,4.03c-.4,.61-1,1.01-1.4,1.41-1.61,1.01-3.63,1.82-5.64,2.22-1.81,.61-2.81,.61-2.81,1.21-.2,.8,1.81,1.81,2.81,2.21,3.43,1.41,6.85,.61,7.45,.4,.4-.2,1.41-.61,2.41-1.21,0-2.21-.2-4.22-.4-5.83v-.2h-.2c-.61,0-1.41,0-2.22-.2Z"/></svg>